# File created by Blade
# Date/Time:  Thu Sep 25 18:39:44 2014
# Frame Rate: 120.000 fps
#------------------------------------------------------
:FULLY-SPECIFIED
:DEGREES
2527
root -1.041420 33.081270 -3.335505 7.933462 5.360757 -1.106564
Spine -6.763926 4.415242 1.332726
Head -19.475370 -6.009567 9.230192
LeftShoulder -13.042083 19.029840 25.445341
LeftArm 18.505930 -26.707644 -29.237455
LeftForeArm 16.229662 -0.000000 13.182610
LeftHand -28.664282 -0.000000 -7.105366
LeftHandThumb1 -26.253704 0.000000 33.147579
RightShoulder -21.375666 9.916694 -37.867240
RightArm -10.511773 10.300720 28.752128
RightForeArm -31.572905 0.000000 13.766053
RightHand -13.298343 0.000000 14.730640
RightHandThumb1 -24.326973 -0.000000 -32.862282
LeftUpLeg -3.645143 5.275643 2.186297
LeftLeg -0.270414 -0.000000 0.000000
LeftFoot -8.467513 0.823334 -10.176674
LeftToeBase 10.142654 -0.000000 -0.000000
RightUpLeg -3.955691 -7.583997 1.001118
RightLeg 1.721852 -0.000000 -0.000000
RightFoot -7.299385 -2.617446 0.357061
RightToeBase -0.425381 -0.000000 0.000000
2528
root -1.040392 33.080496 -3.331752 7.901783 5.292518 -1.112381
Spine -6.767412 4.422303 1.327400
Head -19.317580 -6.000367 9.203153
LeftShoulder -13.052972 19.045535 25.408619
LeftArm 18.464559 -26.646161 -29.188546
LeftForeArm 16.219683 -0.000000 13.159505
LeftHand -28.615576 0.000000 -7.125577
LeftHandThumb1 -26.253704 0.000000 33.147579
RightShoulder -21.373349 9.895454 -37.848726
RightArm -10.426443 10.237625 28.801241
RightForeArm -31.767772 -0.000000 13.748510
RightHand -13.316962 -0.000000 14.805587
RightHandThumb1 -24.326973 -0.000000 -32.862282
LeftUpLeg -3.604273 5.244600 2.191167
LeftLeg -0.252942 -0.000000 0.000000
LeftFoot -8.511477 0.902907 -10.196431
LeftToeBase 10.133206 -0.000000 -0.000000
RightUpLeg -3.934882 -7.533496 0.996418
RightLeg 1.745627 -0.000000 -0.000000
RightFoot -7.307729 -2.615984 0.351278
RightToeBase -0.455146 -0.000000 0.000000
2529
root -1.040112 33.080079 -3.328134 7.867111 5.219981 -1.127182
Spine -6.756511 4.434919 1.327639
Head -19.177882 -5.978492 9.204341
LeftShoulder -13.092035 19.068326 25.381481
LeftArm 18.479159 -26.613165 -29.190677
LeftForeArm 16.225955 0.000000 13.141823
LeftHand -28.615917 0.000000 -7.117187
LeftHandThumb1 -26.253704 0.000000 33.147579
RightShoulder -21.372513 9.884926 -37.820288
RightArm -10.333922 10.061326 28.861392
RightForeArm -31.773847 -0.000000 13.709565
RightHand -13.231566 -0.000000 14.814039
RightHandThumb1 -24.326973 -0.000000 -32.862282
LeftUpLeg -3.562734 5.247268 2.205022
LeftLeg -0.232919 -0.000000 0.000000
LeftFoot -8.555584 0.958672 -10.201441
LeftToeBase 10.135447 -0.000000 -0.000000
RightUpLeg -3.909091 -7.498074 0.998265
RightLeg 1.769753 -0.000000 -0.000000
RightFoot -7.351790 -2.572861 0.397182
RightToeBase -0.334640 -0.000000 0.000000
2530
root -1.039729 33.079148 -3.325504 7.834529 5.155484 -1.128771
Spine -6.756379 4.439861 1.305430
Head -19.060167 -5.976829 9.200399
LeftShoulder -13.106866 19.130020 25.371529
LeftArm 18.464824 -26.516453 -29.152551
LeftForeArm 16.064145 -0.000000 13.171539
LeftHand -28.635644 -0.000000 -7.168789
LeftHandThumb1 -26.253704 0.000000 33.147579
RightShoulder -21.342017 9.867198 -37.770792
RightArm -10.255450 9.862725 28.913446
RightForeArm -31.717749 -0.000000 13.693691
RightHand -13.209969 -0.000000 14.840362
RightHandThumb1 -24.326973 -0.000000 -32.862282
LeftUpLeg -3.527939 5.208820 2.208678
LeftLeg -0.208338 -0.000000 0.000000
LeftFoot -8.602842 1.047351 -10.226391
LeftToeBase 10.177121 -0.000000 -0.000000
RightUpLeg -3.890215 -7.479417 0.990475
RightLeg 1.794179 -0.000000 -0.000000
RightFoot -7.341687 -2.548392 0.324408
RightToeBase -0.429712 -0.000000 0.000000
2531
root -1.039221 33.078676 -3.322968 7.803502 5.088489 -1.142554
Spine -6.755116 4.471326 1.294103
Head -18.935329 -6.002967 9.219115
LeftShoulder -13.113753 19.139553 25.376509
LeftArm 18.500739 -26.546712 -29.202910
LeftForeArm 16.122241 -0.000000 13.183582
LeftHand -28.623485 -0.000000 -7.219713
LeftHandThumb1 -26.253704 0.000000 33.147579
RightShoulder -21.323044 9.824227 -37.762236
RightArm -10.210311 9.769565 29.014550
RightForeArm -31.803515 -0.000000 13.769640
RightHand -13.436258 -0.000000 14.955810
RightHandThumb1 -24.326973 -0.000000 -32.862282
LeftUpLeg -3.493502 5.175886 2.221935
LeftLeg -0.183021 -0.000000 0.000000
LeftFoot -8.653079 1.129898 -10.233591
LeftToeBase 10.117290 -0.000000 -0.000000
RightUpLeg -3.887354 -7.480156 0.996918
RightLeg 1.850777 -0.000000 -0.000000
RightFoot -7.393378 -2.492879 0.345960
RightToeBase -0.333754 -0.000000 0.000000
2532
root -1.038558 33.078097 -3.319737 7.766944 5.021390 -1.142446
Spine -6.747599 4.501395 1.269807
Head -18.817128 -6.036518 9.210163
LeftShoulder -13.105483 19.151520 25.362298
LeftArm 18.512927 -26.595649 -29.209201
LeftForeArm 16.099213 -0.000000 13.205700
LeftHand -28.585119 -0.000000 -7.341216
LeftHandThumb1 -26.253704 0.000000 33.147579
RightShoulder -21.317444 9.809075 -37.743830
RightArm -10.136488 9.626102 29.097503
RightForeArm -31.701244 0.000000 13.767764
RightHand -13.440029 -0.000000 14.959298
RightHandThumb1 -24.326973 -0.000000 -32.862282
LeftUpLeg -3.457045 5.164639 2.222485
LeftLeg -0.150421 -0.000000 0.000000
LeftFoot -8.683904 1.194592 -10.247038
LeftToeBase 10.112165 -0.000000 -0.000000
RightUpLeg -3.856907 -7.470182 0.987290
RightLeg 1.860082 -0.000000 -0.000000
RightFoot -7.398170 -2.449749 0.311045
RightToeBase -0.378330 -0.000000 0.000000
2533
root -1.037418 33.077665 -3.317221 7.735780 4.955915 -1.149333
Spine -6.744221 4.524033 1.253484
Head -18.698815 -6.064493 9.221301
LeftShoulder -13.124359 19.161205 25.350156
LeftArm 18.570723 -26.633468 -29.240422
LeftForeArm 16.134523 -0.000000 13.188874
LeftHand -28.532477 -0.000000 -7.345220
LeftHandThumb1 -26.253704 0.000000 33.147579
RightShoulder -21.299628 9.799930 -37.745182
RightArm -10.093618 9.606848 29.200038
RightForeArm -31.729211 -0.000000 13.798411
RightHand -13.400270 -0.000000 14.963875
RightHandThumb1 -24.326973 -0.000000 -32.862282
LeftUpLeg -3.425198 5.154522 2.226805
LeftLeg -0.121523 -0.000000 0.000000
LeftFoot -8.732535 1.258329 -10.228621
LeftToeBase 10.136025 -0.000000 -0.000000
RightUpLeg -3.834067 -7.457973 0.982197
RightLeg 1.877968 -0.000000 -0.000000
RightFoot -7.408319 -2.395310 0.328064
RightToeBase -0.375907 -0.000000 0.000000
2534
root -1.036786 33.077123 -3.314919 7.702972 4.894938 -1.153676
Spine -6.738983 4.549236 1.232656
Head -18.589607 -6.099497 9.222204
LeftShoulder -13.137292 19.184031 25.342124
LeftArm 18.639499 -26.692072 -29.279190
LeftForeArm 16.050573 -0.000000 13.212897
LeftHand -28.612813 -0.000000 -7.361925
LeftHandThumb1 -26.253704 0.000000 33.147579
RightShoulder -21.287088 9.819941 -37.729265
RightArm -10.053731 9.558394 29.267822
RightForeArm -31.690035 -0.000000 13.839713
RightHand -13.370175 -0.000000 14.972875
RightHandThumb1 -24.326973 -0.000000 -32.862282
LeftUpLeg -3.395403 5.145432 2.231361
LeftLeg -0.088839 -0.000000 0.000000
LeftFoot -8.760746 1.300492 -10.269003
LeftToeBase 10.134561 -0.000000 -0.000000
RightUpLeg -3.812134 -7.449736 0.976758
RightLeg 1.895067 -0.000000 -0.000000
RightFoot -7.413873 -2.347874 0.298657
RightToeBase -0.362386 -0.000000 0.000000
2535
root -1.035367 33.076979 -3.311905 7.660425 4.829978 -1.156445
Spine -6.714410 4.577417 1.222339
Head -18.477371 -6.131262 9.212439
LeftShoulder -13.157753 19.178234 25.305352
LeftArm 18.723727 -26.750471 -29.299932
LeftForeArm 16.078273 0.000000 13.185615
LeftHand -28.597498 0.000000 -7.349242
LeftHandThumb1 -26.253704 0.000000 33.147579
RightShoulder -21.306961 9.803780 -37.689921
RightArm -9.911921 9.442299 29.345084
RightForeArm -31.456012 -0.000000 13.835464
RightHand -13.436476 0.000000 14.886907
RightHandThumb1 -24.326973 -0.000000 -32.862282
LeftUpLeg -3.347585 5.116470 2.232621
LeftLeg -0.068331 -0.000000 0.000000
LeftFoot -8.799533 1.385253 -10.252905
LeftToeBase 10.110992 -0.000000 -0.000000
RightUpLeg -3.772990 -7.438418 0.965004
RightLeg 1.903296 -0.000000 -0.000000
RightFoot -7.417354 -2.301962 0.310174
RightToeBase -0.364225 -0.000000 0.000000
2536
root -1.034602 33.076270 -3.310249 7.631325 4.762206 -1.161715
Spine -6.714160 4.611611 1.206420
Head -18.351934 -6.137377 9.179243
LeftShoulder -13.144449 19.192987 25.314470
LeftArm 18.765736 -26.815709 -29.350600
LeftForeArm 16.092570 -0.000000 13.232915
LeftHand -28.606808 -0.000000 -7.346578
LeftHandThumb1 -26.253704 0.000000 33.147579
RightShoulder -21.293970 9.816884 -37.673759
RightArm -9.847129 9.402181 29.413756
RightForeArm -31.581891 -0.000000 13.894902
RightHand -13.499833 -0.000000 15.017608
RightHandThumb1 -24.326973 -0.000000 -32.862282
LeftUpLeg -3.317997 5.106586 2.236054
LeftLeg -0.041564 -0.000000 0.000000
LeftFoot -8.842265 1.438772 -10.275101
LeftToeBase 10.150930 -0.000000 -0.000000
RightUpLeg -3.753370 -7.411584 0.961403
RightLeg 1.910191 -0.000000 -0.000000
RightFoot -7.388310 -2.295452 0.224393
RightToeBase -0.516213 -0.000000 0.000000
2537
root -1.033904 33.075802 -3.308093 7.598343 4.704784 -1.172342
Spine -6.706648 4.639613 1.191203
Head -18.248930 -6.165094 9.186568
LeftShoulder -13.163018 19.196694 25.336819
LeftArm 18.841351 -26.860040 -29.422775
LeftForeArm 16.146442 -0.000000 13.292950
LeftHand -28.677094 -0.000000 -7.351422
LeftHandThumb1 -26.253704 0.000000 33.147579
RightShoulder -21.277102 9.828308 -37.671668
RightArm -9.775423 9.434054 29.491621
RightForeArm -31.771791 0.000000 13.857136
RightHand -13.307597 -0.000000 15.076054
RightHandThumb1 -24.326973 -0.000000 -32.862282
LeftUpLeg -3.286962 5.099288 2.243899
LeftLeg -0.009884 -0.000000 0.000000
LeftFoot -8.892031 1.499571 -10.258964
LeftToeBase 10.184141 -0.000000 -0.000000
RightUpLeg -3.729904 -7.391005 0.960694
RightLeg 1.932988 -0.000000 -0.000000
RightFoot -7.425168 -2.249863 0.261704
RightToeBase -0.431266 -0.000000 0.000000
2538
root -1.032480 33.075208 -3.307848 7.576877 4.647474 -1.172438
Spine -6.708874 4.665006 1.177155
Head -18.148092 -6.176376 9.158183
LeftShoulder -13.140084 19.204465 25.344246
LeftArm 18.883786 -26.919411 -29.458679
LeftForeArm 16.190532 0.000000 13.295528
LeftHand -28.671062 -0.000000 -7.344661
LeftHandThumb1 -26.253704 0.000000 33.147579
RightShoulder -21.260675 9.848214 -37.685027
RightArm -9.707594 9.440181 29.572376
RightForeArm -31.877301 -0.000000 13.871637
RightHand -13.268733 -0.000000 15.209924
RightHandThumb1 -24.326973 -0.000000 -32.862282
LeftUpLeg -3.265237 5.111015 2.239666
LeftLeg 0.010642 -0.000000 -0.000000
LeftFoot -8.915542 1.551331 -10.256916
LeftToeBase 10.114873 -0.000000 -0.000000
RightUpLeg -3.721921 -7.363658 0.948359
RightLeg 1.951893 -0.000000 -0.000000
RightFoot -7.445424 -2.210516 0.272853
RightToeBase -0.418619 -0.000000 0.000000
